<?xml version="1.0" encoding="UTF-8"?>
<svg id="Layer_2" data-name="Layer 2" xmlns="http://www.w3.org/2000/svg" viewBox="0 0 688.19 175.4">
  <g id="Layer_1-2" data-name="Layer 1">
    <g>
      <g>
        <path d="M32.96,175.4L0,50.01h25.79l21.85,97.98L86.61,0l13.52,50.01,25.08,97.98,22.03-97.98h25.97l-33.85,125.39h-28.84l-24-91.35-24.9,91.35h-28.66Z"/>
        <path d="M190.05,175.4V50.01h24.18v125.39h-24.18Z"/>
        <path d="M235.19,175.4v-18.63l57.86-86.7h-57.5v-20.06h85.26v18.63l-58.04,86.7h58.39v20.06h-85.98Z"/>
        <path d="M333.7,175.4l45.86-125.39h27.41l45.68,125.39h-25.62l-33.85-97.8-34.03,97.8h-25.44ZM353.94,146.92l6.45-18.81h63.77l6.27,18.81h-76.49Z"/>
        <path d="M469.12,175.4V50.01h46.75c10.15,0,18.51,1.73,25.08,5.19,6.57,3.46,11.46,8.09,14.69,13.88,3.22,5.79,4.84,12.21,4.84,19.26s-1.55,12.93-4.66,18.72c-3.11,5.79-7.97,10.45-14.6,13.97-6.63,3.52-15.14,5.28-25.53,5.28h-22.39v49.08h-24.18ZM493.3,108.77h21.14c7.28,0,12.66-1.79,16.12-5.37,3.46-3.58,5.19-8.3,5.19-14.15s-1.7-10.48-5.1-13.88-8.81-5.1-16.21-5.1h-21.14v38.51ZM534.14,175.4l-25.79-55.17h26.15l27.23,55.17h-27.58Z"/>
        <path d="M582.15,175.4V50.01h41.92c14.57,0,26.6,2.6,36.09,7.79,9.49,5.19,16.54,12.48,21.14,21.85,4.59,9.38,6.9,20.39,6.9,33.05s-2.3,23.68-6.9,33.05c-4.6,9.38-11.62,16.66-21.05,21.85-9.43,5.19-21.49,7.79-36.18,7.79h-41.92ZM606.33,154.62h16.48c10.27,0,18.36-1.67,24.27-5.02,5.91-3.34,10.12-8.15,12.63-14.42,2.51-6.27,3.76-13.76,3.76-22.48s-1.25-16.39-3.76-22.66c-2.51-6.27-6.72-11.07-12.63-14.42-5.91-3.34-14-5.02-24.27-5.02h-16.48v84.01Z"/>
      </g>
      <path d="M688.19,36.27H146.43s0,0,0,0c0-13.36,10.83-24.18,24.18-24.18h517.57s0,24.18,0,24.18Z"/>
    </g>
  </g>
</svg>